<svg preserveAspectRatio="none" width="100%" height="100%" overflow="visible" style="display: block;" viewBox="0 0 24 24" fill="none" xmlns="http://www.w3.org/2000/svg">
<path d="M2 12.93C2 12.93 2 16.93 6 16.93M2 8.93C2 8.93 2 6.93 4 6.93M2 16.93C2 16.93 2 20.93 6 20.93M22 4.93H6C4.9 4.93 4 5.83 4 6.93V8.93" stroke="var(--fill-0, white)" stroke-width="2" stroke-linecap="round" stroke-linejoin="round"/>
<path d="M18 12.93C18 12.93 18 16.93 22 16.93M18 8.93C18 8.93 18 6.93 20 6.93M18 16.93C18 16.93 18 20.93 22 20.93" stroke="var(--fill-0, white)" stroke-width="2" stroke-linecap="round" stroke-linejoin="round"/>
</svg>
