<svg preserveAspectRatio="none" width="100%" height="100%" overflow="visible" style="display: block;" viewBox="0 0 20.1136 21.0208" fill="none" xmlns="http://www.w3.org/2000/svg">
<path id="Home Icon A" d="M9.92136 1.01386L1.0492 6.2457C1.01871 6.26368 1 6.29644 1 6.33184V19.9208C1 19.9761 1.04477 20.0208 1.1 20.0208H7.42276C7.47799 20.0208 7.52276 19.9761 7.52276 19.9208V13.1266C7.52276 13.0714 7.56753 13.0266 7.62276 13.0266H12.4982C12.5535 13.0266 12.5982 13.0714 12.5982 13.1266V19.9208C12.5982 19.9761 12.643 20.0208 12.6982 20.0208H19.0136C19.0689 20.0208 19.1136 19.9761 19.1136 19.9208V6.33238C19.1136 6.29669 19.0946 6.26371 19.0637 6.24583L10.0222 1.01345C9.991 0.995371 9.95245 0.995528 9.92136 1.01386Z" fill="var(--fill-0, white)" stroke="var(--stroke-0, white)" stroke-width="2"/>
</svg>
