<svg preserveAspectRatio="none" width="100%" height="100%" overflow="visible" style="display: block;" viewBox="0 0 20.0364 20.4297" fill="none" xmlns="http://www.w3.org/2000/svg">
<g id="Your Playlisy Icon">
<path d="M1.00269 0C0.448975 0 0 0.44873 0 1.00293V19.3926C0 19.9468 0.448975 20.3955 1.00269 20.3955C1.5564 20.3955 2.00537 19.9468 2.00537 19.3926V1.00293C2.00537 0.44873 1.5564 0 1.00269 0Z" fill="var(--fill-0, white)"/>
<path d="M6.0437 1.00293C6.0437 0.44873 6.49268 0 7.04639 0C7.6001 0 8.04907 0.44873 8.04907 1.00293V19.3926C8.04907 19.9468 7.6001 20.3955 7.04639 20.3955C6.49268 20.3955 6.0437 19.9468 6.0437 19.3926V1.00293Z" fill="var(--fill-0, white)"/>
<path fill-rule="evenodd" clip-rule="evenodd" d="M12.0457 1.22314C12.0457 0.364258 12.9858 -0.163086 13.719 0.284668L19.5095 3.82031C19.6709 3.91895 19.801 4.05518 19.8918 4.21387C19.9851 4.37744 20.0364 4.56494 20.0364 4.75928V19.3296C20.0364 19.937 19.5437 20.4297 18.9363 20.4297H13.1458C12.5381 20.4297 12.0457 19.937 12.0457 19.3296V1.22314ZM14.0457 2.82764V18.4297H18.0364V5.26416L14.0457 2.82764Z" fill="var(--fill-0, white)"/>
</g>
</svg>
