<svg preserveAspectRatio="none" width="100%" height="100%" overflow="visible" style="display: block;" viewBox="0 0 22.6211 22.3511" fill="none" xmlns="http://www.w3.org/2000/svg">
<path id="Search Icon" fill-rule="evenodd" clip-rule="evenodd" d="M17.2568 15.5728C18.5061 13.9644 19.25 11.9443 19.25 9.75C19.25 4.50342 14.9968 0.25 9.75 0.25C4.50317 0.25 0.25 4.50342 0.25 9.75C0.25 14.9966 4.50317 19.25 9.75 19.25C12.082 19.25 14.2178 18.4102 15.8711 17.0156L20.6641 21.8081C21.0544 22.1987 21.6877 22.1987 22.0781 21.8081C22.4688 21.418 22.4688 20.7847 22.0781 20.394L17.2568 15.5728ZM9.75 17.3501C5.55273 17.3501 2.1499 13.9473 2.1499 9.75C2.1499 5.55273 5.55273 2.1499 9.75 2.1499C13.9473 2.1499 17.3501 5.55273 17.3501 9.75C17.3501 13.9473 13.9473 17.3501 9.75 17.3501Z" fill="var(--fill-0, white)" stroke="var(--stroke-0, white)" stroke-width="0.5"/>
</svg>
