<svg preserveAspectRatio="none" width="100%" height="100%" overflow="visible" style="display: block;" viewBox="0 0 22 20" fill="none" xmlns="http://www.w3.org/2000/svg">
<g id="Union">
<path d="M5.63381 13.6809C5.61614 13.7002 5.59709 13.7213 5.57659 13.7439C5.32639 14.0201 4.85984 14.5353 4.05086 15.0101C3.18092 15.5207 1.88181 16.001 0.0134212 15.988L0 17.9754C2.22915 17.9909 3.87034 17.4122 5.03234 16.7302C6.10516 16.1005 6.74162 15.3961 7.0123 15.0965C7.03313 15.0735 7.0524 15.0521 7.06892 15.0341C7.25936 14.8263 7.44926 14.6209 7.64151 14.413C8.9843 12.9605 10.4426 11.3831 13.0093 8.0042C14.8669 5.55876 17.42 5.00419 18.0027 4.98941H18.6548L17.1367 6.52915C16.881 6.9273 16.9254 7.46578 17.2699 7.81517C17.5925 8.14232 18.0785 8.20265 18.4614 7.99615L21.7129 4.69837C22.0955 4.31031 22.0955 3.68114 21.7129 3.29309L18.5913 0.127079C18.2065 -0.08799 17.713 -0.0300716 17.3867 0.300835C17.0471 0.645323 16.9991 1.17364 17.2429 1.57003L18.6548 3.00204L17.9837 3.00204L17.975 3.0022C16.9062 3.02156 13.7403 3.78558 11.4571 6.7913C8.94831 10.094 7.54163 11.6155 6.21074 13.0551L6.209 13.057C6.01673 13.265 5.82603 13.4712 5.63381 13.6809Z" fill="var(--fill-0, white)"/>
<path d="M5.57686 6.25622C5.59732 6.27882 5.61634 6.29981 5.63398 6.31906C5.8262 6.52876 6.0169 6.73504 6.20917 6.94301L6.2105 6.94445C6.67918 7.4514 7.15767 7.96897 7.68996 8.57046L9.16898 7.26644C8.61521 6.64004 8.12127 6.10578 7.64202 5.58739C7.44977 5.37943 7.25953 5.17366 7.06909 4.96589C7.05257 4.94788 7.03392 4.92723 7.01309 4.90418C6.74241 4.6046 6.10533 3.89951 5.03251 3.26982C3.87051 2.58778 2.22932 2.00914 0.000170067 2.02463L0.0135911 4.01195C1.88198 3.99897 3.18109 4.4793 4.05103 4.98991C4.86001 5.46474 5.32666 5.97997 5.57686 6.25622Z" fill="var(--fill-0, white)"/>
<path d="M11.4573 13.2087C11.3494 13.0667 11.2435 12.9279 11.1396 12.7924L12.6206 11.4866C12.7474 11.6517 12.877 11.8213 13.0095 11.9958C14.8671 14.4412 17.4202 14.9958 18.0029 15.0106H18.655L17.1368 13.4709C16.8812 13.0727 16.9256 12.5342 17.2701 12.1848C17.5927 11.8577 18.0787 11.7973 18.4615 12.0039L21.713 15.3016C22.0957 15.6897 22.0957 16.3189 21.713 16.7069L18.5915 19.8729C18.2067 20.088 17.7132 20.0301 17.3869 19.6992C17.0472 19.3547 16.9993 18.8264 17.243 18.43L18.655 16.998H17.9839L17.9751 16.9978C16.9063 16.9784 13.7405 16.2144 11.4573 13.2087Z" fill="var(--fill-0, white)"/>
</g>
</svg>
